# xmcd CD database file
#
# Track frame offsets:
#	150
#	9785
#	24565
#	40832
#	55557
#	66467
#	78851
#	92010
#	105391
#	110078
#	124006
#	139963
#	152940
#	172653
#
# Disc length: 2429 seconds
#
# Revision: 0
# Processed by: cddbd v1.5.2PL0 Copyright (c) Steve Scherf et al.
# Submitted via: CDex 1.70beta2
#
DISCID=a7097b0e
DTITLE=Bob Ringwald - Ringwald Rated R Vol 3
DYEAR=1983
DGENRE=Blues
TTITLE0=I wanna play piano in a cathouse
TTITLE1=The freckle song
TTITLE2=a Hawaiian tale
TTITLE3=Maple leaf rag
TTITLE4=My home town
TTITLE5=The masochism tango
TTITLE6=Hard hearted Hannah
TTITLE7=My girl's pussy
TTITLE8=Secret love
TTITLE9=The dirtiest buggie
TTITLE10=Life gets teejus, don't it
TTITLE11=Huggin' and chalkin'
TTITLE12=Our trailer don't seem like a home any more
TTITLE13=That's my weekness now
EXTD=YEAR: 1983
EXTT0=
EXTT1=
EXTT2=
EXTT3=
EXTT4=
EXTT5=
EXTT6=
EXTT7=
EXTT8=
EXTT9=
EXTT10=
EXTT11=
EXTT12=
EXTT13=
PLAYORDER=
